{"title":"Armistice.2013.HDRiP.XViD.AC3-FiRE","uid":9501859,"size":1462098588,"categoryP":"video","categoryS":"movies","magnet":"?xt=urn:btih:6977737a8cde867dbde67cda4108470380756cf3&amp;dn=Armistice.2013.HDRiP.XViD.AC3-FiRE&amp;tr=udp%3A%2F%2Ftracker.openbittorrent.com%3A80&amp;tr=udp%3A%2F%2Fopen.demonii.com%3A1337&amp;tr=udp%3A%2F%2Ftracker.coppersurfer.tk%3A6969&amp;tr=udp%3A%2F%2Fexodus.desync.com%3A6969","seeders":1,"leechers":1,"uploader":".BONE.","files":4,"time":1390241454,"description":"A Royal Marine awakens to find himself imprisoned and forced to fight to the death against inhuman opponents again and again. \n\nArmistice.2013.HDRiP.XViD.AC3-FiRE\n\nFormat : AVI\nFormat/Info : Audio Video Interleave\nFile size : 1.36 GiB\nDuration : 1h 20mn\nOverall bit rate : 2 413 Kbps\nWriting application : VirtualDubMod 1.5.10.1 (build 2366/release)\nWriting library : VirtualDubMod build 2366/release\n\nVideo\n\nID : 0\nFormat : MPEG-4 Visual\nFormat profile : Advanced Simple@L5\nFormat settings, BVOP : 2\nFormat settings, QPel : No\nFormat settings, GMC : No warppoints\nFormat settings, Matrix : Custom\nMuxing mode : Packed bitstream\nCodec ID : XVID\nCodec ID/Hint : XviD\nDuration : 1h 20 mn\nBit rate : 2 020 Kbps\nWidth : 720 pixels\nHeight : 304 pixels\nDisplay aspect ratio : 2.35:1\nFrame rate : 23.976 fps\nColor space : YUV\nChroma subsampling : 4:2:0\nBit depth : 8 bits\nScan type : Progressive\nCompression mode : Lossy\nBits/(Pixel*Frame) : 0.385\nStream size : 1.14 GiB (84%)\nWriting library : XviD 58\n\nAudio\n\nID : 1\nFormat : AC-3\nFormat/Info : Audio Coding 3\nMode extension : CM (complete main)\nFormat settings, Endianness : Big\nCodec ID : 2000\nDuration : 1h 20mn\nBit rate mode : Constant\nBit rate : 384 Kbps (English)\nChannel(s) : 6 channels\nChannel positions : Front: L C R, Side: L R, LFE\nSampling rate : 48.0 KHz\nBit depth : 16 bits\nCompression mode : Lossy\nStream size : 222 MiB (16%)\nAlignment : Split accross interleaves\nInterleave, duration : 42 ms (1.00 video frame)\nInterleave, preload duration : 500 ms\nSource : iTUNES","torrent":{"xt":"urn:btih:6977737a8cde867dbde67cda4108470380756cf3","amp;dn":"Armistice.2013.HDRiP.XViD.AC3-FiRE","amp;tr":["udp%3A%2F%2Ftracker.openbittorrent.com%3A80","udp%3A%2F%2Fopen.demonii.com%3A1337","udp%3A%2F%2Ftracker.coppersurfer.tk%3A6969","udp%3A%2F%2Fexodus.desync.com%3A6969"],"infoHash":"6977737a8cde867dbde67cda4108470380756cf3","infoHashBuffer":{"type":"Buffer","data":[105,119,115,122,140,222,134,125,189,230,124,218,65,8,71,3,128,117,108,243]},"announce":[],"urlList":[]}}